<svg width="49" height="48" viewBox="0 0 49 48" fill="none" xmlns="http://www.w3.org/2000/svg">
<path d="M24.5 4.5C20.6433 4.5 16.8731 5.64366 13.6664 7.78634C10.4596 9.92903 7.96027 12.9745 6.48436 16.5377C5.00845 20.1008 4.62228 24.0216 5.3747 27.8043C6.12711 31.5869 7.9843 35.0615 10.7114 37.7886C13.4386 40.5157 16.9131 42.3729 20.6957 43.1253C24.4784 43.8777 28.3992 43.4916 31.9623 42.0156C35.5255 40.5397 38.571 38.0404 40.7137 34.8336C42.8564 31.6269 44 27.8567 44 24C43.9945 18.83 41.9383 13.8732 38.2826 10.2174C34.6268 6.56167 29.6701 4.50546 24.5 4.5ZM23 15C23 14.6022 23.158 14.2206 23.4393 13.9393C23.7207 13.658 24.1022 13.5 24.5 13.5C24.8978 13.5 25.2794 13.658 25.5607 13.9393C25.842 14.2206 26 14.6022 26 15V25.5C26 25.8978 25.842 26.2794 25.5607 26.5607C25.2794 26.842 24.8978 27 24.5 27C24.1022 27 23.7207 26.842 23.4393 26.5607C23.158 26.2794 23 25.8978 23 25.5V15ZM24.5 34.5C24.055 34.5 23.62 34.368 23.25 34.1208C22.88 33.8736 22.5916 33.5222 22.4213 33.111C22.251 32.6999 22.2064 32.2475 22.2932 31.811C22.3801 31.3746 22.5944 30.9737 22.909 30.659C23.2237 30.3443 23.6246 30.13 24.0611 30.0432C24.4975 29.9564 24.9499 30.001 25.361 30.1713C25.7722 30.3416 26.1236 30.63 26.3708 31C26.618 31.37 26.75 31.805 26.75 32.25C26.75 32.8467 26.513 33.419 26.091 33.841C25.669 34.2629 25.0967 34.5 24.5 34.5Z" fill="#FF8A00"/>
</svg>
